<mxfile host="app.diagrams.net" modified="2022-05-06T16:37:10.649Z" agent="5.0 (Macintosh; Intel Mac OS X 10_15_7) AppleWebKit/537.36 (KHTML, like Gecko) Chrome/101.0.4951.54 Safari/537.36" etag="s_3Q0xp8Gq8cYQ1E_RhN" version="17.4.6" type="github">
  <diagram id="KoOdg2N1i1upjq5eEogs" name="Page-1">
    <mxGraphModel dx="2066" dy="1161" grid="1" gridSize="10" guides="1" tooltips="1" connect="1" arrows="1" fold="1" page="1" pageScale="1" pageWidth="850" pageHeight="1100" math="0" shadow="0">
      <root>
        <mxCell id="0" />
        <mxCell id="1" parent="0" />
        <mxCell id="j9Hijhqab_qyBpmQSOof-2" value="Bestie" style="rounded=0;whiteSpace=wrap;html=1;" vertex="1" parent="1">
          <mxGeometry x="240" y="420" width="120" height="60" as="geometry" />
        </mxCell>
        <mxCell id="j9Hijhqab_qyBpmQSOof-3" value="Bestie" style="rounded=0;whiteSpace=wrap;html=1;" vertex="1" parent="1">
          <mxGeometry x="400" y="420" width="120" height="60" as="geometry" />
        </mxCell>
        <mxCell id="j9Hijhqab_qyBpmQSOof-4" value="Bestie" style="rounded=0;whiteSpace=wrap;html=1;" vertex="1" parent="1">
          <mxGeometry x="560" y="420" width="120" height="60" as="geometry" />
        </mxCell>
        <mxCell id="j9Hijhqab_qyBpmQSOof-5" value="Loadbalancer" style="rounded=0;whiteSpace=wrap;html=1;" vertex="1" parent="1">
          <mxGeometry x="400" y="300" width="120" height="60" as="geometry" />
        </mxCell>
        <mxCell id="j9Hijhqab_qyBpmQSOof-20" value="" style="edgeStyle=orthogonalEdgeStyle;rounded=0;orthogonalLoop=1;jettySize=auto;html=1;" edge="1" parent="1" source="j9Hijhqab_qyBpmQSOof-9" target="j9Hijhqab_qyBpmQSOof-5">
          <mxGeometry relative="1" as="geometry" />
        </mxCell>
        <mxCell id="j9Hijhqab_qyBpmQSOof-9" value="User" style="shape=umlActor;verticalLabelPosition=bottom;verticalAlign=top;html=1;outlineConnect=0;" vertex="1" parent="1">
          <mxGeometry x="445" y="130" width="30" height="60" as="geometry" />
        </mxCell>
        <mxCell id="j9Hijhqab_qyBpmQSOof-11" value="" style="endArrow=classic;startArrow=classic;html=1;rounded=0;" edge="1" parent="1" source="j9Hijhqab_qyBpmQSOof-2" target="j9Hijhqab_qyBpmQSOof-1">
          <mxGeometry width="50" height="50" relative="1" as="geometry">
            <mxPoint x="400" y="620" as="sourcePoint" />
            <mxPoint x="450" y="570" as="targetPoint" />
          </mxGeometry>
        </mxCell>
        <mxCell id="j9Hijhqab_qyBpmQSOof-12" value="" style="endArrow=classic;startArrow=classic;html=1;rounded=0;" edge="1" parent="1" source="j9Hijhqab_qyBpmQSOof-3" target="j9Hijhqab_qyBpmQSOof-1">
          <mxGeometry width="50" height="50" relative="1" as="geometry">
            <mxPoint x="400" y="620" as="sourcePoint" />
            <mxPoint x="450" y="570" as="targetPoint" />
          </mxGeometry>
        </mxCell>
        <mxCell id="j9Hijhqab_qyBpmQSOof-13" value="" style="endArrow=classic;startArrow=classic;html=1;rounded=0;" edge="1" parent="1" source="j9Hijhqab_qyBpmQSOof-4" target="j9Hijhqab_qyBpmQSOof-1">
          <mxGeometry width="50" height="50" relative="1" as="geometry">
            <mxPoint x="400" y="620" as="sourcePoint" />
            <mxPoint x="450" y="570" as="targetPoint" />
          </mxGeometry>
        </mxCell>
        <mxCell id="j9Hijhqab_qyBpmQSOof-16" value="" style="endArrow=classic;html=1;rounded=0;" edge="1" parent="1" source="j9Hijhqab_qyBpmQSOof-5" target="j9Hijhqab_qyBpmQSOof-2">
          <mxGeometry width="50" height="50" relative="1" as="geometry">
            <mxPoint x="400" y="620" as="sourcePoint" />
            <mxPoint x="450" y="570" as="targetPoint" />
          </mxGeometry>
        </mxCell>
        <mxCell id="j9Hijhqab_qyBpmQSOof-17" value="" style="endArrow=classic;html=1;rounded=0;" edge="1" parent="1" source="j9Hijhqab_qyBpmQSOof-5" target="j9Hijhqab_qyBpmQSOof-3">
          <mxGeometry width="50" height="50" relative="1" as="geometry">
            <mxPoint x="400" y="620" as="sourcePoint" />
            <mxPoint x="450" y="570" as="targetPoint" />
          </mxGeometry>
        </mxCell>
        <mxCell id="j9Hijhqab_qyBpmQSOof-18" value="" style="endArrow=classic;html=1;rounded=0;" edge="1" parent="1" source="j9Hijhqab_qyBpmQSOof-5" target="j9Hijhqab_qyBpmQSOof-4">
          <mxGeometry width="50" height="50" relative="1" as="geometry">
            <mxPoint x="400" y="620" as="sourcePoint" />
            <mxPoint x="450" y="570" as="targetPoint" />
          </mxGeometry>
        </mxCell>
        <mxCell id="j9Hijhqab_qyBpmQSOof-19" value="" style="endArrow=classic;html=1;rounded=0;entryX=0.5;entryY=0;entryDx=0;entryDy=0;" edge="1" parent="1" source="j9Hijhqab_qyBpmQSOof-9" target="j9Hijhqab_qyBpmQSOof-5">
          <mxGeometry width="50" height="50" relative="1" as="geometry">
            <mxPoint x="400" y="620" as="sourcePoint" />
            <mxPoint x="450" y="570" as="targetPoint" />
          </mxGeometry>
        </mxCell>
        <mxCell id="j9Hijhqab_qyBpmQSOof-21" value="" style="swimlane;startSize=0;" vertex="1" parent="1">
          <mxGeometry x="220" y="280" width="480" height="380" as="geometry" />
        </mxCell>
        <mxCell id="j9Hijhqab_qyBpmQSOof-1" value="Postgres" style="shape=cylinder3;whiteSpace=wrap;html=1;boundedLbl=1;backgroundOutline=1;size=15;" vertex="1" parent="j9Hijhqab_qyBpmQSOof-21">
          <mxGeometry x="195" y="250" width="90" height="110" as="geometry" />
        </mxCell>
        <mxCell id="j9Hijhqab_qyBpmQSOof-22" value="Datacenter" style="text;html=1;align=center;verticalAlign=middle;resizable=0;points=[];autosize=1;strokeColor=none;fillColor=none;" vertex="1" parent="j9Hijhqab_qyBpmQSOof-21">
          <mxGeometry x="395" y="10" width="70" height="20" as="geometry" />
        </mxCell>
      </root>
    </mxGraphModel>
  </diagram>
</mxfile>
